<?xml version="1.0" encoding="UTF-8"?>
<!-- Created with Inkscape by Vulphere (http://www.inkscape.org/) -->
<svg width="170.7515mm" height="32.97316mm" version="1.1" viewBox="0 0 170.7515 32.97316" xmlns="http://www.w3.org/2000/svg">
<title>Ufotable logo</title>
<desc>Japanese animation studio</desc>
 <g transform="translate(-24.97479 -44.0694)">
  <g fill="#940001" stroke-width="1.17468" aria-label="ufotable">
   <ellipse cx="167.1748" cy="60.55598" rx="12.00625" ry="14.57504" fill="#feff7d" stroke="#ef955a" stroke-width="3.82307"/>
   <g transform="matrix(1 0 0 .8909391 0 5.496178)">
    <path d="m195.7263 70.68972-5.07461-0.939744c-0.23494 1.268654-1.1277 3.289104-4.36981 3.289104-3.05417 0-4.65174-1.738527-4.98065-5.027631h13.90821c0.23494-1.080705 0.32892-2.114424 0.32892-3.054168-0.094-5.497503-4.08789-9.209491-9.96129-9.209491-6.71917 0-10.61911 4.886669-10.61911 11.41789 0 7.095067 4.60475 10.66609 10.90103 10.66609 6.10834 0 9.58539-3.383078 9.86731-7.142054zm-6.43724-6.202311h-7.94084c0.3759-2.631283 1.73853-4.416797 4.22885-4.416797 2.86622 0 3.99391 2.302373 3.71199 4.416797z" fill="#940001"/>
    <g fill="#940001">
     <path d="m51.14666 77.3619v-4.557758h-3.054168v-16.63347h-11.35177v4.557759h3.430066v9.372101l-6.315421-0.04699v-13.88287h-8.880581v4.557759h2.819232v9.726351c0 5.02763 3.430065 7.330003 7.423978 7.330003 3.101155 0 5.450515-1.315642 6.813144-3.665002v3.24212z"/>
     <path d="m66.30435 46.06041c-1.949522 0-4.68669-0.01581-7.400668 0.01242-3.98846-0.132719-2.964368 3.991935-2.964368 6.855723v3.242117h-2.584296v4.322823h2.584296v12.31065h-2.819232v4.557758h12.40462v-4.557758h-3.52404v-12.31065h5.21558v-4.322823h-5.21558v-3.35187c0-1.832501 2.753109-1.942254 4.209712-1.942254z"/>
     <path d="m111.2903 70.78369-4.4168-1.362629c-0.3759 3.148143-2.02045 3.336092-2.77224 3.336092-1.50359 0-2.53731-0.751796-2.53731-2.772245v-9.491415h7.61192v-4.322823h-7.61192l-0.41341-10.2613-5.647941 3.824056v6.437246h-3.007181v4.322823h3.007181v10.52513c0 4.36981 3.19513 6.813144 7.893851 6.813144 4.4168 0 7.28302-2.161411 7.89385-7.04808z"/>
     <path d="m114.1095 57.67426-0.93975 5.497502 4.83969 0.51686 0.79878-3.007181c0.98673-0.516859 1.97346-0.610834 3.24211-0.610834 3.43007 0 3.47706 2.584296 3.47706 4.745707v0.704809c-1.08071-0.140962-2.30238-0.187949-3.47706-0.187949-4.83968 0-9.86731 1.221667-9.86731 6.437246 0 4.416797 3.47706 6.061349 6.53122 6.061349 3.43007 0 5.78933 0.406315 6.95932-1.445035 0.14704 1.38653-0.19687 1.020102 0.14704 1.38653 0 0 2.77525 0.02319 4.35852 0.05851 1.31564 0 2.67827-0.375897 3.80596-0.986731l-0.047-3.19513c-0.32891 0.09398-0.61084 0.140962-0.89276 0.140962-0.98673 0-1.4566-0.422885-1.4566-1.644552v-9.209492c0-4.839681-3.85295-7.189041-8.41071-7.189041-3.47706 0-5.35654 0.422884-9.06853 1.926475zm11.41789 11.04199c-0.28193 3.336092-2.49032 4.792695-4.60475 4.792695-1.8325 0-2.49032-1.080706-2.49032-2.443335 0-2.302373 1.87949-2.913206 4.0409-2.913206 0.98673 0 2.06744 0.140961 3.05417 0.281923z"/>
     <path d="m159.5932 66.27292c0-6.625196-3.71199-10.52513-9.06853-10.52513-3.85295 0-6.01436 2.020449-7.14206 4.463784v-15.17687h-8.88058v4.604745h2.81923v21.19123c0 2.114424-0.32891 4.322823-0.79878 6.531221h6.06135c0.18795-1.080705 0.32891-2.114424 0.46987-3.195129 1.22167 2.255385 3.47706 3.665001 6.81315 3.665001 6.39026 0 9.72635-5.309553 9.72635-11.55885zm-6.29629 0.516859c0 4.322823-2.16141 6.296285-4.93365 6.296285-3.19513 0-4.98065-2.631283-4.98065-6.108336v-0.516859c0-3.101156 1.8325-5.920388 5.12161-5.920388 2.9132 0 4.79269 2.208399 4.79269 6.249298z"/>
     <path d="m173.1255 77.3619v-4.557758h-2.81923v-27.76944h-9.11552v4.604745h3.05417v23.16469h-2.81923v4.557758z"/>
    </g>
    <ellipse cx="81.12048" cy="68.52688" rx="11.54688" ry="8.939519" fill="#009cfe" stroke-width="1.10685"/>
    <ellipse cx="81.29637" cy="68.34212" rx="7.527079" ry="6.404345" fill="#fe5152" stroke="#940000" stroke-width=".185937"/>
    <ellipse cx="81.49628" cy="68.38467" rx="3.219829" ry="2.98049" fill="#9c3101" stroke-width="2.13065"/>
   </g>
  </g>
 </g>
</svg>
